# xmcd CD database file
#
# Track frame offsets:
#	182
#	10457
#	21212
#	32370
#	44990
#	57217
#	67392
#	79880
#	92195
#	106642
#	117475
#	130935
#	148350
#	161512
#	172737
#	186807
#	202952
#	214792
#	228375
#	245732
#
# Disc length: 3428 seconds
#
# Revision: 16
# Processed by: cddbd v1.5.2PL0 Copyright (c) Steve Scherf et al.
# Submitted via: CDex 1.90
#
DISCID=230d6214
DTITLE=John Lee Hooker - Gold Collection [CD 1)
DYEAR=2001
DGENRE=Blues
TTITLE0=Dimples
TTITLE1=Maudie
TTITLE2=Shake, holler and run
TTITLE3=Hobo blues
TTITLE4=Crawling King Snake
TTITLE5=Want-ad blues
TTITLE6=I'm in the mood
TTITLE7=Whiskey and wimmen
TTITLE8=Cool little car
TTITLE9=Gonna boogie
TTITLE10=Ride till I die
TTITLE11=Wednesday evening blues
TTITLE12=Rock house boogie
TTITLE13=No shoes
TTITLE14=Half a stranger
TTITLE15=My first wife left me
TTITLE16=I love you honey
TTITLE17=Time is marching
TTITLE18=Blues before sunrise
TTITLE19=Boom boom
EXTD=YEAR: 2001
EXTT0=
EXTT1=
EXTT2=
EXTT3=
EXTT4=
EXTT5=
EXTT6=
EXTT7=
EXTT8=
EXTT9=
EXTT10=
EXTT11=
EXTT12=
EXTT13=
EXTT14=
EXTT15=
EXTT16=
EXTT17=
EXTT18=
EXTT19=
PLAYORDER=
